<svg xmlns="http://www.w3.org/2000/svg" viewBox="-3 -3 30 30">
<path fill-rule="evenodd" clip-rule="evenodd" d="M25 12.9424C25 19.8455 19.4031 25.4424 12.5 25.4424C5.59687 25.4424 0 19.8455 0 12.9424C0 6.03926 5.59687 0.442383 12.5 0.442383C19.4031 0.442383 25 6.03926 25 12.9424ZM12.9479 9.67051C11.7323 10.1757 9.30208 11.2226 5.65833 12.8101C5.06667 13.0455 4.75625 13.2757 4.72813 13.5007C4.68021 13.882 5.15729 14.032 5.80521 14.2351C5.89375 14.2632 5.98542 14.2913 6.07917 14.3226C6.71771 14.5299 7.57604 14.7726 8.02188 14.782C8.42708 14.7903 8.87917 14.6236 9.37813 14.282C12.7823 11.983 14.5396 10.8215 14.65 10.7965C14.7281 10.7788 14.8365 10.7559 14.9094 10.8215C14.9823 10.8861 14.975 11.009 14.9677 11.0424C14.9198 11.2434 13.051 12.982 12.0823 13.882C11.7802 14.1622 11.5667 14.3611 11.5229 14.407C11.425 14.508 11.325 14.6049 11.2292 14.6976C10.6354 15.2684 10.1917 15.6976 11.2542 16.3976C11.7646 16.7341 12.1729 17.0122 12.5802 17.2893C13.025 17.5924 13.4688 17.8945 14.0438 18.2715C14.1896 18.3674 14.3292 18.4663 14.4656 18.5632C14.9833 18.933 15.449 19.2643 16.024 19.2122C16.3573 19.1809 16.7031 18.8674 16.8781 17.9309C17.2917 15.7163 18.1063 10.9205 18.2948 8.94343C18.3063 8.77927 18.2993 8.61435 18.274 8.45176C18.2588 8.32044 18.1949 8.1996 18.0948 8.11322C17.9458 7.99134 17.7146 7.9653 17.6104 7.96738C17.1406 7.97572 16.4198 8.22676 12.9479 9.67051Z" fill="rgba(242, 176, 70, 0.9)"/>
</svg>
