<svg width="324" height="494" viewBox="0 0 324 494" fill="none" xmlns="http://www.w3.org/2000/svg">
<path opacity="0.3" d="M35.8227 -70.2189C51.2285 -149.769 3.10335 -131.902 0.414849 -135.055C0.414849 -135.055 -11.0721 -130.522 -48.7319 -106.68L-48.3605 581.85L161.245 460.834C232.402 341.423 283.352 260.174 227.38 241.525C130.497 209.141 72.4947 199.627 108.379 73.8677C129.645 -0.668073 17.3391 25.2969 35.8227 -70.2189Z" fill="url(#paint0_linear_112_908)"/>
<path opacity="0.3" d="M38.0767 19.7874C53.4597 -59.7494 5.41042 -41.9259 2.63667 -45.1024C2.63667 -45.1024 -8.84509 -40.5728 -46.4858 -16.7416L-45.9673 671.704L163.535 550.748C236.495 397.14 182.122 355.053 137.024 317.385C92.8698 280.475 118.749 242.657 135.569 153.965C149.417 81.0344 19.6203 115.288 38.0767 19.7874Z" fill="url(#paint1_linear_112_908)"/>
<defs>
<linearGradient id="paint0_linear_112_908" x1="328.746" y1="145.105" x2="81.9735" y2="200.014" gradientUnits="userSpaceOnUse">
<stop stop-color="white"/>
<stop offset="1" stop-color="white" stop-opacity="0"/>
</linearGradient>
<linearGradient id="paint1_linear_112_908" x1="255.104" y1="225.9" x2="64.6872" y2="286.154" gradientUnits="userSpaceOnUse">
<stop stop-color="white"/>
<stop offset="1" stop-color="white" stop-opacity="0"/>
</linearGradient>
</defs>
</svg>
