<svg width="20" height="20" viewBox="0 0 20 20" fill="none" xmlns="http://www.w3.org/2000/svg">
<path d="M20 16.0943C20 16.5432 19.8429 16.9248 19.5286 17.2391L17.2391 19.5286C16.9248 19.8429 16.5432 20 16.0943 20C15.6453 20 15.2637 19.8429 14.9495 19.5286L10 14.5791L5.05051 19.5286C4.73625 19.8429 4.35466 20 3.90572 20C3.45679 20 3.0752 19.8429 2.76094 19.5286L0.47138 17.2391C0.157127 16.9248 0 16.5432 0 16.0943C0 15.6453 0.157127 15.2637 0.47138 14.9495L5.42088 10L0.47138 5.05051C0.157127 4.73625 0 4.35466 0 3.90572C0 3.45679 0.157127 3.0752 0.47138 2.76094L2.76094 0.47138C3.0752 0.157127 3.45679 0 3.90572 0C4.35466 0 4.73625 0.157127 5.05051 0.47138L10 5.42088L14.9495 0.47138C15.2637 0.157127 15.6453 0 16.0943 0C16.5432 0 16.9248 0.157127 17.2391 0.47138L19.5286 2.76094C19.8429 3.0752 20 3.45679 20 3.90572C20 4.35466 19.8429 4.73625 19.5286 5.05051L14.5791 10L19.5286 14.9495C19.8429 15.2637 20 15.6453 20 16.0943Z" fill="white" fill-opacity="0.54"/>
</svg>
