<svg width="14" height="16" viewBox="0 0 14 16" fill="none" xmlns="http://www.w3.org/2000/svg">
<path fill-rule="evenodd" clip-rule="evenodd" d="M7.00001 0C6.31001 0 5.15701 0.265 4.07201 0.56C2.96201 0.86 1.84301 1.215 1.18501 1.43C0.909897 1.52085 0.665996 1.68747 0.481322 1.9107C0.296648 2.13394 0.178693 2.40474 0.141005 2.692C-0.454995 7.169 0.928005 10.487 2.60601 12.682C3.31759 13.621 4.16603 14.4478 5.12301 15.135C5.50901 15.408 5.86701 15.617 6.17101 15.76C6.45101 15.892 6.75201 16 7.00001 16C7.24801 16 7.54801 15.892 7.82901 15.76C8.19549 15.5819 8.5461 15.3728 8.87701 15.135C9.834 14.4479 10.6824 13.621 11.394 12.682C13.072 10.487 14.455 7.169 13.859 2.692C13.8214 2.4046 13.7035 2.13364 13.5188 1.91023C13.3341 1.68683 13.0902 1.52003 12.815 1.429C11.8598 1.11581 10.8972 0.825729 9.92801 0.559C8.84301 0.266 7.69001 0 7.00001 0ZM9.14601 5.146C9.23989 5.05211 9.36723 4.99937 9.50001 4.99937C9.63278 4.99937 9.76012 5.05211 9.85401 5.146C9.94789 5.23989 10.0006 5.36722 10.0006 5.5C10.0006 5.63278 9.94789 5.76011 9.85401 5.854L6.85401 8.854C6.80756 8.90056 6.75238 8.93751 6.69164 8.96271C6.63089 8.98792 6.56577 9.00089 6.50001 9.00089C6.43424 9.00089 6.36912 8.98792 6.30837 8.96271C6.24763 8.93751 6.19245 8.90056 6.14601 8.854L4.64601 7.354C4.59952 7.30751 4.56264 7.25232 4.53748 7.19158C4.51232 7.13084 4.49937 7.06574 4.49937 7C4.49937 6.93426 4.51232 6.86916 4.53748 6.80842C4.56264 6.74768 4.59952 6.69249 4.64601 6.646C4.69249 6.59951 4.74768 6.56264 4.80842 6.53748C4.86916 6.51232 4.93426 6.49937 5.00001 6.49937C5.06575 6.49937 5.13085 6.51232 5.19159 6.53748C5.25233 6.56264 5.30752 6.59951 5.35401 6.646L6.50001 7.793L9.14601 5.146Z" fill="white" fill-opacity="0.54"/>
</svg>
