<svg xmlns="http://www.w3.org/2000/svg" viewBox="-3 -3 30 30">
<path d="M12.5 0.442383C5.5971 0.442383 0 6.03948 0 12.9424C0 19.8453 5.5971 25.4424 12.5 25.4424C19.4029 25.4424 25 19.8453 25 12.9424C25 6.03948 19.4029 0.442383 12.5 0.442383ZM18.5073 9.86482C18.5156 9.99595 18.5156 10.1327 18.5156 10.2666C18.5156 14.3626 15.3962 19.0808 9.69587 19.0808C7.93806 19.0808 6.30859 18.5702 4.93583 17.6913C5.18694 17.7192 5.4269 17.7303 5.68359 17.7303C7.13449 17.7303 8.46819 17.2393 9.53125 16.4078C8.16964 16.3799 7.02567 15.487 6.63504 14.2593C7.11216 14.3291 7.54185 14.3291 8.03292 14.2035C7.33183 14.0611 6.70166 13.6803 6.24949 13.1259C5.79731 12.5715 5.55102 11.8777 5.55246 11.1622V11.1232C5.96261 11.3548 6.44531 11.4971 6.95034 11.5166C6.52579 11.2337 6.17762 10.8503 5.93669 10.4006C5.69577 9.95089 5.56954 9.44867 5.5692 8.93848C5.5692 8.36091 5.71987 7.83357 5.99051 7.37598C6.7687 8.33395 7.73976 9.11744 8.84058 9.67555C9.9414 10.2336 11.1473 10.5539 12.38 10.6154C11.942 8.50879 13.5156 6.80399 15.4074 6.80399C16.3002 6.80399 17.1038 7.17787 17.6702 7.78055C18.3705 7.64941 19.0402 7.38714 19.6373 7.03557C19.4057 7.75265 18.9202 8.35812 18.2757 8.74037C18.9007 8.67341 19.5033 8.50042 20.0614 8.25767C19.6401 8.87709 19.1127 9.42676 18.5073 9.86482Z" fill="rgba(242, 176, 70, 0.9)"/>
</svg>
